# xmcd CD database file
#
# Track frame offsets:
#	150
#	14257
#	30864
#	44315
#	60878
#	72495
#	85741
#	98160
#	112368
#	125813
#	142268
#	156128
#	169381
#	181932
#	195104
#	207470
#	218298
#	234975
#	246571
#	259771
#	273761
#	286958
#	299124
#	310554
#	326457
#
# Disc length: 4499 seconds
#
# Revision: 0
# Processed by: cddbd v1.5.2PL0 Copyright (c) Steve Scherf et al.
# Submitted via: ACXtractor (MTCDDB.DLL V2003.12.21)
#
DISCID=6d119119
DTITLE=Slim and Byron Whitman - Duets
DYEAR=1990
DGENRE=Country
TTITLE0=Back Home Again
TTITLE1=Road of Simarron
TTITLE2=Walbush Waltz
TTITLE3=If I Ever See You Again
TTITLE4=If You Love Me (Let me Know)
TTITLE5=Down River Road
TTITLE6=Before the Next Teardrop Falls
TTITLE7=What I Fool I Was
TTITLE8=Cowboy Heaven
TTITLE9=I wish I Was Eighteen Again
TTITLE10=Blue Eyes Crying in the Rain
TTITLE11=Just out of Reach
TTITLE12=A Satisfied Mind
TTITLE13=Yesterday's Roses
TTITLE14=My Mind Has a Heart of I'ts Own
TTITLE15=Tennesse Yodel Poka
TTITLE16=Let me Call You Sweetheart
TTITLE17=Let the Rest of the World go By
TTITLE18=Harbour Lights
TTITLE19=You are my Sunshine
TTITLE20=Little Drops of Silver
TTITLE21=Fly Away
TTITLE22=Have Thy Own Way Lord
TTITLE23=Whispering Hope
TTITLE24=Everyone Needs Someone to Care
EXTD=ID3G:   2 YEAR: 1990
EXTT0=
EXTT1=
EXTT2=
EXTT3=
EXTT4=
EXTT5=
EXTT6=
EXTT7=
EXTT8=
EXTT9=
EXTT10=
EXTT11=
EXTT12=
EXTT13=
EXTT14=
EXTT15=
EXTT16=
EXTT17=
EXTT18=
EXTT19=
EXTT20=
EXTT21=
EXTT22=
EXTT23=
EXTT24=
PLAYORDER=
